<svg xmlns="http://www.w3.org/2000/svg" version="1.1" xmlns:xlink="http://www.w3.org/1999/xlink" xmlns:svgjs="http://svgjs.dev/svgjs" viewBox="0 0 6.588775051460531 5.778185243904248"><g transform="matrix(1,0,0,1,3.3198683491138254,4.904724852398962)"><rect width="6.588775051460531" height="6.588775051460531" x="-3.3198683491138254" y="-5.310019756177104" fill="#b9625d"></rect><g><path d=" M -2.7896872765043152 -1.5754636402132776 L -2.0642792845646585 -1.5483113800849793 L -2.0156391173947696 -1.3122708451387857 L -2.419171959225792 -1.1300779650260355 L -1.976081139115524 -1.1203042689999725 L -1.9274409719456351 -0.8842637340537789 L -2.58342067547682 -0.5744950646323237 L -2.626207876472739 -0.7821323816804276 L -2.170676573003301 -0.9597252631803209 L -2.6651603754926083 -0.9711606938987487 L -2.7085530557479034 -1.1817362748673448 L -2.2621869244203823 -1.3839868046656674 L -2.7469000755083965 -1.3678263231651737 L -2.7896872765043152 -1.5754636402132776 M -2.5387687874610174 -2.121060675958002 L -2.426063530146592 -2.0982018707904264 L -2.3813397809056838 -2.3187121568403892 L -2.23531296925482 -2.2890950962319656 L -2.2800367184957278 -2.068584810182003 L -2.1555709125919713 -2.043340738388246 L -2.104883996785609 -2.293252395911537 L -1.9510168194085236 -2.2620451575523255 L -2.0406630901091884 -1.8200445397366225 L -2.7315953197324045 -1.9601789540248014 L -2.64194904903174 -2.402179571840504 L -2.488081871654655 -2.370972333481293 L -2.5387687874610174 -2.121060675958002 M -1.917715818254301 -2.9936129640758544 Q -1.8584943482309193 -3.002630585063105 -1.8050815176552297 -2.973167565362255 Q -1.7262757020517534 -2.9296975362954267 -1.7115650932335986 -2.8507760690751622 Q -1.6968544844154436 -2.771854601854898 -1.7509505205874965 -2.673785142437239 L -1.919517633302197 -2.368193701930425 L -2.536829855529428 -2.7087089296205793 L -2.37357574636734 -3.0046685482203017 Q -2.321411711487146 -3.099235526944473 -2.2496774233029595 -3.12990215210454 Q -2.177943135118773 -3.1605687772646074 -2.1017641800354125 -3.1185477491666735 Q -2.047475729286351 -3.0886017291428587 -2.0268350025877693 -3.0400995601052325 Q -2.0061942758891878 -2.9915973910676064 -2.019141990728705 -2.937068896861049 Q -1.9769372882776828 -2.984595343088604 -1.917715818254301 -2.9936129640758544 M -2.196988143684187 -2.7450903931713513 L -2.149171111710676 -2.831776790335175 Q -2.113429087811284 -2.8965726831647003 -2.1668419183869734 -2.9260357028655504 Q -2.222005989309407 -2.9564647232123304 -2.257748013208799 -2.8916688303828053 L -2.30556504518231 -2.8049824332189814 L -2.196988143684187 -2.7450903931713513 M -1.926681947425561 -2.810691919557504 Q -1.9547017929734638 -2.826147929892376 -1.9790058422185999 -2.817284342002024 Q -2.003309891463736 -2.8084207541116717 -2.020697903090467 -2.7768984278702815 L -2.0752769395854846 -2.67795334827925 L -1.963197557393874 -2.616129306939761 L -1.9081355205758916 -2.715950006704164 Q -1.8723934966764997 -2.7807458995336893 -1.926681947425561 -2.810691919557504 M -1.4320550450722054 -3.921478889805342 Q -1.3382187297955737 -3.9336133834208393 -1.2551797651574006 -3.8945041728455765 Q -1.1721408005192275 -3.8553949622703136 -1.112441111783061 -3.771460778740569 Q -1.0533210316754011 -3.6883414901965503 -1.0440300632454016 -3.5967776987414517 Q -1.0347390948154023 -3.505213907286353 -1.0764106335264518 -3.4197388649555447 Q -1.1180821722375014 -3.3342638226247363 -1.2077206206673257 -3.270506873489025 L -1.4350763216847893 -3.1087960661357195 L -1.8437004047818506 -3.6832970310723208 L -1.616344703764387 -3.8450078384256257 Q -1.525891360348837 -3.909344396189844 -1.4320550450722054 -3.921478889805342 M -1.2374471206516682 -3.5193368057694494 Q -1.2247588718909141 -3.586037692895373 -1.2746052139424706 -3.656118661667781 Q -1.3250311646225335 -3.7270145254259153 -1.3924924287771487 -3.7373212144510677 Q -1.4599536929317642 -3.7476279034762205 -1.5300346617041725 -3.697781561424664 L -1.5854475207335184 -3.658368174686224 L -1.375629197214176 -3.3633761898535295 L -1.3202163381848302 -3.4027895765919696 Q -1.2501353694124222 -3.4526359186435256 -1.2374471206516682 -3.5193368057694494 M -0.7817260623291035 -4.09369731609089 L -0.747897028884339 -3.9837855492222194 L -0.5328522676195485 -4.049972788570671 L -0.4890216068954625 -3.9075653688886547 L -0.7040663681602529 -3.8413781295402023 L -0.6667073486169044 -3.7199973087374096 L -0.4229899525168085 -3.795009513332322 L -0.37680596772699965 -3.6449560576942237 L -0.8078512447510907 -3.512287413489104 L -1.0152379280429076 -4.186094332118781 L -0.5841926510188165 -4.3187629763239 L -0.5380086662290076 -4.168709520685802 L -0.7817260623291035 -4.09369731609089 M 0.4343070759391855 -4.361936338993299 L 0.17443511645475657 -3.6629795701772854 L -0.07649239580201425 -3.6690114515279184 L -0.3034797927679733 -4.379671512048149 L -0.09354043988382243 -4.374624918089452 L 0.05418137028992687 -3.861926891177908 L 0.22536743425924488 -4.366958901552193 L 0.4343070759391855 -4.361936338993299 M 0.8579112819215643 -4.068228962307967 L 0.8188401799502681 -3.960069593824471 L 1.0304563356788465 -3.883626133445848 L 0.9798337774725583 -3.7434892125411454 L 0.76821762174398 -3.8199326729197685 L 0.7250695352191573 -3.700487109464082 L 0.9649011783782128 -3.6138511877016426 L 0.9115606304695736 -3.466190136815479 L 0.4873878027647344 -3.619416806285519 L 0.7269106452844196 -4.282480760901731 L 1.1510834729892587 -4.129254091431691 L 1.0977429250806197 -3.9815930405455275 L 0.8579112819215643 -4.068228962307967 M 1.2524135277907262 -3.422698394157402 L 1.4323589923021012 -3.2978760011272024 L 1.3468642025553894 -3.1746256829687267 L 1.0058716556502725 -3.411161267934629 L 1.4076971674598175 -3.9904377632794663 L 1.5687442498535598 -3.878724571343763 L 1.2524135277907262 -3.422698394157402 M 1.549789440811714 -3.023968916033469 Q 1.5369651845965124 -3.1182386802875866 1.5736550593205683 -3.206626196899001 Q 1.6103449340446239 -3.295013713510416 1.6933962807630136 -3.3576114275921762 Q 1.7764476274814036 -3.4202091416739364 1.8715219086086394 -3.4311353060576217 Q 1.9665961897358752 -3.4420614704413075 2.0532882302919524 -3.40346755765414 Q 2.1399802708480298 -3.3648736448669734 2.19956847944509 -3.285815151356198 Q 2.25975858913909 -3.2059580872039004 2.2726811801265834 -3.1123885588190143 Q 2.285603771114076 -3.0188190304341287 2.2486129458415505 -2.930830799143475 Q 2.211622120569025 -2.842842567852822 2.128570773850635 -2.780244853771062 Q 2.045519427132245 -2.717647139689302 1.9507460965534793 -2.7063216899848546 Q 1.8559727659747134 -2.6949962402804077 1.7688814400978747 -2.7332892025191047 Q 1.681790114221036 -2.771582164757802 1.6222019056239758 -2.850640658268577 Q 1.5626136970269158 -2.929699151779352 1.549789440811714 -3.023968916033469 M 1.8779970038031744 -2.8950491906412443 Q 1.9433096629546904 -2.889804521485055 2.0087924555595746 -2.939160411434135 Q 2.075872389447505 -2.989720103577095 2.0884203678444795 -3.053650129684935 Q 2.1009683462414537 -3.1175801557927745 2.0558257639709536 -3.1774729539069977 Q 2.0100812806035133 -3.2381643226627443 1.9454688573212289 -3.243310657046642 Q 1.8808564340389444 -3.2484569914305403 1.8137765001510142 -3.1978972992875803 Q 1.7474951369046068 -3.14793950824156 1.7346462079591625 -3.084408767454482 Q 1.721797279013718 -3.0208780266674036 1.7675417623811582 -2.9601866579116574 Q 1.8126843446516583 -2.9002938597974337 1.8779970038031744 -2.8950491906412443 M 2.3667587409046433 -2.062427236504405 Q 2.3079907592301323 -2.0755735032712237 2.2607025841002217 -2.1234935251084774 Q 2.2134144089703103 -2.171413546945731 2.1886690690954875 -2.2537765735686004 L 2.1607586276087685 -2.346674405922302 L 1.932823739978037 -2.2781931165012805 L 1.8764273839842545 -2.465904200432471 L 2.551612660369405 -2.6687584401039848 L 2.6359194578499063 -2.3881495238190924 Q 2.660377061214557 -2.306744206808117 2.6487660952129977 -2.241128389595263 Q 2.637155129211438 -2.1755125723824094 2.595028615086236 -2.1315312489864593 Q 2.5529021009610338 -2.0875499255905092 2.4868201377403594 -2.067696106388617 Q 2.425526722579154 -2.049280969737586 2.3667587409046433 -2.062427236504405 M 2.4292728357058873 -2.259238028767383 Q 2.5030164758217124 -2.2813937400506545 2.4791343454774064 -2.3608836378378424 L 2.4566908976839623 -2.4355849875655613 L 2.3101613270642063 -2.3915613015091903 L 2.3326047748576504 -2.3168599517814714 Q 2.356486905201956 -2.2373700539942836 2.4292728357058873 -2.259238028767383 M 2.5860615133540517 -1.641480083776604 L 2.4710622238706472 -1.6418843340854747 L 2.470271299353292 -1.4168857242266406 L 2.321272219935664 -1.417409492018134 L 2.3220631444530193 -1.642408101876968 L 2.1950639291104777 -1.6428545348267642 L 2.194167547990808 -1.3878561103200857 L 2.0371685180004215 -1.388407999872196 L 2.03875388225521 -1.8394052134114591 L 2.7437495264795566 -1.836926983257078 L 2.7421641622247686 -1.385929769717815 L 2.5851651322343816 -1.3864816592699254 L 2.5860615133540517 -1.641480083776604 M 1.9191452853789221 -0.937836659087109 L 2.2091883379028197 -0.993289591224371 L 2.215495144840329 -1.0133201725003347 L 1.9674974718998266 -1.091404448869497 L 2.0263610033165795 -1.278356540778491 L 2.6988162318667874 -1.0666280221621085 L 2.606016072643437 -0.7718923262443579 Q 2.5804885207535184 -0.6908161639368859 2.5346311989938055 -0.6433993310499655 Q 2.4887738772340926 -0.5959824981630448 2.430641537051359 -0.5828340752584172 Q 2.3725091968686254 -0.5696856523537894 2.311463615837117 -0.5889063973061986 Q 2.2427873371766704 -0.610529735377659 2.2026660131048414 -0.664573970544079 Q 2.162544689033013 -0.7186182057104988 2.1634310679808006 -0.7980172884026868 L 1.8533742987448971 -0.7289463114949167 L 1.9191452853789221 -0.937836659087109 M 2.343309330125049 -0.9730767377562279 L 2.314177888556554 -0.8805545290053483 Q 2.302164922961298 -0.8424010408606556 2.3142813470323995 -0.8176181381305628 Q 2.3263977711035 -0.79283523540047 2.360735910433724 -0.7820235663647399 Q 2.3931663753567127 -0.7718125456087725 2.417922845694819 -0.7855098875552403 Q 2.442679316032925 -0.7992072295017081 2.4543919574882995 -0.8364068804427834 L 2.4835233990567946 -0.9289290891936631 L 2.343309330125049 -0.9730767377562279" fill="#ffffff" fill-rule="nonzero"></path></g><g><path d=" M -1.4722626953125 0.3559999999999999 L -1.5902626953124999 0.20099999999999993 L -1.5902626953124999 0.3559999999999999 L -1.6757626953125 0.3559999999999999 L -1.6757626953125 0.004999999999999893 L -1.5902626953124999 0.004999999999999893 L -1.5902626953124999 0.15899999999999992 L -1.4732626953124999 0.004999999999999893 L -1.3727626953124998 0.004999999999999893 L -1.5087626953125 0.17699999999999994 L -1.3677626953125 0.3559999999999999 L -1.4722626953125 0.3559999999999999 M -1.021251953125 0.004999999999999893 L -1.142751953125 0.23999999999999994 L -1.142751953125 0.3559999999999999 L -1.228251953125 0.3559999999999999 L -1.228251953125 0.23999999999999994 L -1.349751953125 0.004999999999999893 L -1.252751953125 0.004999999999999893 L -1.184751953125 0.1519999999999999 L -1.117251953125 0.004999999999999893 L -1.021251953125 0.004999999999999893 M -0.8962416992187501 0.2899999999999999 L -0.7842416992187501 0.2899999999999999 L -0.7842416992187501 0.3559999999999999 L -0.9817416992187501 0.3559999999999999 L -0.9817416992187501 0.004999999999999893 L -0.8962416992187501 0.004999999999999893 L -0.8962416992187501 0.2899999999999999 M -0.6527468261718751 0.0734999999999999 L -0.6527468261718751 0.14449999999999993 L -0.5382468261718751 0.14449999999999993 L -0.5382468261718751 0.21049999999999994 L -0.6527468261718751 0.21049999999999994 L -0.6527468261718751 0.2874999999999999 L -0.5232468261718751 0.2874999999999999 L -0.5232468261718751 0.3559999999999999 L -0.7382468261718751 0.3559999999999999 L -0.7382468261718751 0.004999999999999893 L -0.5232468261718751 0.004999999999999893 L -0.5232468261718751 0.0734999999999999 L -0.6527468261718751 0.0734999999999999 M -0.2662514648437501 0.2899999999999999 L -0.1542514648437501 0.2899999999999999 L -0.1542514648437501 0.3559999999999999 L -0.3517514648437501 0.3559999999999999 L -0.3517514648437501 0.004999999999999893 L -0.2662514648437501 0.004999999999999893 L -0.2662514648437501 0.2899999999999999 M 0.11024340820312492 0.29399999999999993 L -0.02075659179687507 0.29399999999999993 L -0.041756591796875075 0.3559999999999999 L -0.13125659179687507 0.3559999999999999 L -0.00425659179687507 0.004999999999999893 L 0.09474340820312493 0.004999999999999893 L 0.2217434082031249 0.3559999999999999 L 0.13124340820312494 0.3559999999999999 L 0.11024340820312492 0.29399999999999993 M 0.08824340820312493 0.22799999999999992 L 0.04474340820312492 0.09949999999999992 L 0.0017434082031249354 0.22799999999999992 L 0.08824340820312493 0.22799999999999992 M 0.27324316406249993 0.08724999999999994 Q 0.2957431640624999 0.04649999999999993 0.3359931640624999 0.023749999999999938 Q 0.3762431640624999 0.0009999999999999454 0.42724316406249996 0.0009999999999999454 Q 0.48974316406249996 0.0009999999999999454 0.5342431640624999 0.03399999999999992 Q 0.5787431640624999 0.06699999999999995 0.5937431640624999 0.12399999999999992 L 0.49974316406249997 0.12399999999999992 Q 0.4892431640624999 0.10199999999999992 0.4699931640624999 0.09049999999999991 Q 0.4507431640624999 0.0789999999999999 0.42624316406249996 0.0789999999999999 Q 0.3867431640624999 0.0789999999999999 0.3622431640624999 0.10649999999999993 Q 0.33774316406249993 0.13399999999999992 0.33774316406249993 0.17999999999999994 Q 0.33774316406249993 0.22599999999999992 0.3622431640624999 0.25349999999999995 Q 0.3867431640624999 0.2809999999999999 0.42624316406249996 0.2809999999999999 Q 0.4507431640624999 0.2809999999999999 0.4699931640624999 0.2694999999999999 Q 0.4892431640624999 0.2579999999999999 0.49974316406249997 0.23599999999999993 L 0.5937431640624999 0.23599999999999993 Q 0.5787431640624999 0.2929999999999999 0.5342431640624999 0.32574999999999993 Q 0.48974316406249996 0.35849999999999993 0.42724316406249996 0.35849999999999993 Q 0.3762431640624999 0.35849999999999993 0.3359931640624999 0.33574999999999994 Q 0.2957431640624999 0.31299999999999994 0.27324316406249993 0.2724999999999999 Q 0.2507431640624999 0.23199999999999993 0.2507431640624999 0.17999999999999994 Q 0.2507431640624999 0.12799999999999992 0.27324316406249993 0.08724999999999994 M 0.7092551269531249 0.3469999999999999 Q 0.6787551269531249 0.3344999999999999 0.6605051269531249 0.30999999999999994 Q 0.6422551269531249 0.2854999999999999 0.6412551269531249 0.25099999999999995 L 0.7322551269531249 0.25099999999999995 Q 0.7342551269531249 0.2704999999999999 0.7457551269531248 0.28074999999999994 Q 0.7572551269531249 0.2909999999999999 0.7757551269531249 0.2909999999999999 Q 0.7947551269531249 0.2909999999999999 0.8057551269531249 0.28224999999999995 Q 0.8167551269531249 0.2734999999999999 0.8167551269531249 0.2579999999999999 Q 0.8167551269531249 0.24499999999999994 0.8080051269531249 0.23649999999999993 Q 0.799255126953125 0.22799999999999992 0.7865051269531249 0.22249999999999992 Q 0.7737551269531249 0.21699999999999992 0.7502551269531249 0.20999999999999994 Q 0.7162551269531249 0.19949999999999993 0.6947551269531249 0.18899999999999992 Q 0.673255126953125 0.17849999999999994 0.6577551269531249 0.15799999999999992 Q 0.6422551269531249 0.13749999999999993 0.6422551269531249 0.10449999999999993 Q 0.6422551269531249 0.05549999999999994 0.6777551269531249 0.02774999999999994 Q 0.7132551269531249 -5.551115123125783e-17 0.7702551269531249 -5.551115123125783e-17 Q 0.8282551269531249 -5.551115123125783e-17 0.863755126953125 0.02774999999999994 Q 0.8992551269531249 0.05549999999999994 0.901755126953125 0.10499999999999993 L 0.809255126953125 0.10499999999999993 Q 0.8082551269531248 0.08799999999999991 0.7967551269531249 0.07824999999999993 Q 0.7852551269531249 0.0684999999999999 0.7672551269531249 0.0684999999999999 Q 0.7517551269531249 0.0684999999999999 0.7422551269531249 0.07674999999999993 Q 0.732755126953125 0.08499999999999991 0.732755126953125 0.10049999999999992 Q 0.732755126953125 0.11749999999999991 0.748755126953125 0.12699999999999992 Q 0.7647551269531249 0.13649999999999993 0.7987551269531249 0.14749999999999994 Q 0.8327551269531249 0.15899999999999992 0.8540051269531249 0.16949999999999993 Q 0.8752551269531249 0.17999999999999994 0.8907551269531249 0.19999999999999993 Q 0.9062551269531249 0.21999999999999992 0.9062551269531249 0.25149999999999995 Q 0.9062551269531249 0.2814999999999999 0.891005126953125 0.30599999999999994 Q 0.875755126953125 0.3304999999999999 0.8467551269531249 0.3449999999999999 Q 0.8177551269531249 0.35949999999999993 0.7782551269531249 0.35949999999999993 Q 0.739755126953125 0.35949999999999993 0.7092551269531249 0.3469999999999999 M 1.039000244140625 0.3364999999999999 Q 0.997750244140625 0.31349999999999995 0.9735002441406249 0.27224999999999994 Q 0.9492502441406249 0.23099999999999993 0.9492502441406249 0.17949999999999994 Q 0.9492502441406249 0.12799999999999992 0.9735002441406249 0.08699999999999991 Q 0.997750244140625 0.04599999999999993 1.039000244140625 0.02299999999999991 Q 1.080250244140625 -5.551115123125783e-17 1.1297502441406249 -5.551115123125783e-17 Q 1.179250244140625 -5.551115123125783e-17 1.220500244140625 0.02299999999999991 Q 1.261750244140625 0.04599999999999993 1.285500244140625 0.08699999999999991 Q 1.3092502441406249 0.12799999999999992 1.3092502441406249 0.17949999999999994 Q 1.3092502441406249 0.23099999999999993 1.2852502441406248 0.27224999999999994 Q 1.261250244140625 0.31349999999999995 1.2202502441406249 0.3364999999999999 Q 1.179250244140625 0.35949999999999993 1.1297502441406249 0.35949999999999993 Q 1.080250244140625 0.35949999999999993 1.039000244140625 0.3364999999999999 M 1.197000244140625 0.25349999999999995 Q 1.2222502441406249 0.22549999999999992 1.2222502441406249 0.17949999999999994 Q 1.2222502441406249 0.13299999999999992 1.197000244140625 0.1052499999999999 Q 1.171750244140625 0.0774999999999999 1.1297502441406249 0.0774999999999999 Q 1.0872502441406249 0.0774999999999999 1.0620002441406249 0.10499999999999993 Q 1.0367502441406249 0.13249999999999992 1.0367502441406249 0.17949999999999994 Q 1.0367502441406249 0.22599999999999992 1.0620002441406249 0.2537499999999999 Q 1.0872502441406249 0.2814999999999999 1.1297502441406249 0.2814999999999999 Q 1.171750244140625 0.2814999999999999 1.197000244140625 0.25349999999999995 M 1.6757556152343749 0.3559999999999999 L 1.590255615234375 0.3559999999999999 L 1.447255615234375 0.13949999999999993 L 1.447255615234375 0.3559999999999999 L 1.3617556152343748 0.3559999999999999 L 1.3617556152343748 0.004999999999999893 L 1.447255615234375 0.004999999999999893 L 1.590255615234375 0.22249999999999992 L 1.590255615234375 0.004999999999999893 L 1.6757556152343749 0.004999999999999893 L 1.6757556152343749 0.3559999999999999" fill="#ffffff" fill-rule="nonzero"></path></g><g clip-path="url(#SvgjsClipPath1002)"><g clip-path="url(#SvgjsClipPath10009706019c-058b-4f8c-b2e8-01923e66a185)"><path d=" M 0.07584423844901167 -0.43911322502750205 C 0.781975282340626 -0.43911322502750205 1.3544025746970076 -1.0155467302451462 1.3544025746970076 -1.7267936214955668 C 1.3544025746970076 -2.438040512745988 0.781975282340626 -3.0144884288012626 0.07584423844901167 -3.0144884288012626 C -0.6302868054426026 -3.0144884288012626 -1.2027140977989843 -2.4379684585578354 -1.2027140977989843 -1.7267936214955668 C -1.2027140977989843 -1.0156187844332982 -0.6302723946049722 -0.43911322502750205 0.07584423844901167 -0.43911322502750205 Z M 0.07584423844901167 -0.3954627978448957 C 0.8059116836447885 -0.3954627978448957 1.3977359634517446 -0.9915238639152009 1.3977359634517446 -1.7267936214955668 C 1.3977359634517446 -2.462063379075933 0.8059116836447885 -3.0581388559838687 0.07584423844901167 -3.0581388559838687 C -0.6542232067467653 -3.0581388559838687 -1.2460474865537208 -2.4620777899135637 -1.2460474865537208 -1.7267936214955668 C -1.2460474865537208 -0.9915094530775703 -0.6542520284220261 -0.3954627978448957 0.07584423844901167 -0.3954627978448957 Z" fill="#ffffff" transform="matrix(1,0,0,1,0,0)" fill-rule="evenodd"></path></g><g clip-path="url(#SvgjsClipPath10009706019c-058b-4f8c-b2e8-01923e66a185)"><path d=" M -0.11919203804137835 -0.3954627978448957 C 0.5869390058502356 -0.3954627978448957 1.1593662982066175 -0.9718963030625403 1.1593662982066175 -1.6831431943129609 C 1.1593662982066175 -2.3943900855633817 0.5869390058502361 -2.9708380016186564 -0.11919203804137835 -2.9708380016186564 C -0.8253230819329928 -2.9708380016186564 -1.397735963451744 -2.3943180313752292 -1.397735963451744 -1.6831431943129609 C -1.397735963451744 -0.9719683572506923 -0.8253086710953622 -0.3954627978448957 -0.11919203804137835 -0.3954627978448957 Z M -0.11919203804137835 -0.35181237066229 C 0.6108754071543984 -0.35181237066229 1.2027140977989843 -0.9478734367325947 1.2027140977989843 -1.6831431943129609 C 1.2027140977989843 -2.418412951893327 0.6108754071543984 -3.0144884288012626 -0.11919203804137835 -3.0144884288012626 C -0.849259483237155 -3.0144884288012626 -1.4410837630441107 -2.4184273627309576 -1.4410837630441107 -1.6831431943129609 C -1.4410837630441107 -0.9478590258949642 -0.8492450723995248 -0.3517835489870287 -0.11919203804137835 -0.3517835489870287 Z" fill="#ffffff" transform="matrix(1,0,0,1,0,0)" fill-rule="evenodd"></path></g><g clip-path="url(#SvgjsClipPath10009706019c-058b-4f8c-b2e8-01923e66a185)"><path d=" M 0.11919203804137857 -0.24267909728695924 C 0.8253230819329928 -0.24267909728695924 1.3977359634517446 -0.819199067530386 1.3977359634517446 -1.5303739045926545 C 1.3977359634517446 -2.241548741654923 0.8253086710953624 -2.8180543010607195 0.11919203804137857 -2.8180543010607195 C -0.5869245950126055 -2.8180543010607195 -1.1593662982066175 -2.241534330817293 -1.1593662982066175 -1.5303739045926545 C -1.1593662982066175 -0.8192134783680167 -0.5869390058502358 -0.24267909728695924 0.11919203804137857 -0.24267909728695924 Z M 0.11919203804137857 -0.1990286701043531 C 0.8492450723995245 -0.1990286701043531 1.441083763044111 -0.7950897361746583 1.441083763044111 -1.5303739045926545 C 1.441083763044111 -2.2656580730106515 0.8492450723995252 -2.8617191390809564 0.11919203804137857 -2.8617191390809564 C -0.6108609963167683 -2.8617191390809564 -1.2027140977989843 -2.2656436621730207 -1.2027140977989843 -1.5303739045926545 C -1.2027140977989843 -0.7951041470122886 -0.6108754071543985 -0.1990286701043531 0.11919203804137857 -0.1990286701043531 Z" fill="#ffffff" transform="matrix(1,0,0,1,0,0)" fill-rule="evenodd"></path></g><path d=" M -0.5521242275566125 -0.9298764839924205 L -0.40491674638543995 -2.305104268617849 C -0.34422594274469337 -2.3076868560068164 -0.2870861967637776 -2.3138205010556154 -0.23349750844269285 -2.3235052037642454 C -0.17990882012160814 -2.333189906472875 -0.12664295522414437 -2.339969198368916 -0.0736999137503016 -2.343843079452368 C -0.0736999137503016 -2.342551785757884 -0.0756368542920276 -2.329316025389423 -0.07951073537547937 -2.304135798346986 C -0.08338461645893136 -2.2789555713045484 -0.08854979123686724 -2.246027582095207 -0.095006259709287 -2.205351830718962 C -0.10146272818170698 -2.164676079342717 -0.10856484350136875 -2.118835153188536 -0.11631260566827262 -2.0678290522564193 C -0.12406036783517638 -2.0168229513243023 -0.13535918766191113 -1.9467702683985468 -0.15020906514847676 -1.857671003479153 C -0.1650589426350425 -1.7685717385597592 -0.18475117147592302 -1.64525319073654 -0.2092857516711184 -1.4877153600094957 L -0.18023164354522914 -1.4877153600094957 C -0.14665800748864588 -1.6065143799020207 -0.1188951930572405 -1.7036842304119395 -0.096943200251013 -1.7792249115392518 C -0.0749912074447856 -1.854765592666564 -0.057235919145630976 -1.9161020431545528 -0.04367733535354934 -1.9632342630032176 C -0.030118751561467483 -2.0103664828518824 -0.017205814616627846 -2.0558845855824424 -0.004938524519030096 -2.0997885711948974 C 0.007328765578567542 -2.1436925568073524 0.018950408828923182 -2.1843683081835974 0.029926405232037046 -2.221815825323633 C 0.0409024016351508 -2.259263342463668 0.049618634072917556 -2.290900037978525 0.05607510254533743 -2.3167259118682044 L 0.07350756742087106 -2.3167259118682044 C 0.09675085392158245 -2.3167259118682044 0.12031696384591495 -2.3180172055626884 0.14420589719386834 -2.3205997929516564 C 0.16809483054182173 -2.3231823803406244 0.19069247019529134 -2.3260877911532134 0.21199881615427685 -2.3293160253894234 C 0.23330516211326224 -2.332544259625633 0.25557997834311086 -2.336740964132706 0.27882326484382225 -2.341906138910642 C 0.27624067745485426 -2.330284495660286 0.2733352666422654 -2.3063955623123324 0.2701070324060555 -2.2702393388667814 C 0.2668787981698456 -2.2340831154212304 0.2626820936627726 -2.1905019532323964 0.25751691888483685 -2.1394958523002794 C 0.25235174410690087 -2.088489751368163 0.24718656932896488 -2.03231847565811 0.2420213945510291 -1.9709820251701213 C 0.23685621977309324 -1.9096455746821328 0.23169104499515725 -1.8496004178886283 0.22652587021722148 -1.7908465547896077 C 0.2213606954392856 -1.732092691690587 0.21651834408497062 -1.6762442394041552 0.21199881615427685 -1.6233011979303125 C 0.20747928822358297 -1.5703581564564697 0.20328258371650998 -1.5251628771495307 0.1994087026330582 -1.4877153600094957 L 0.23427363238412524 -1.4877153600094957 L 0.41828298384809115 -2.3205997929516564 C 0.46218696946054616 -2.3270562614240764 0.505445308225759 -2.332867083049254 0.5480580001437302 -2.33803225782719 C 0.5855055172837654 -2.343197432605126 0.6242443281182842 -2.348362607383062 0.6642744326472872 -2.353527782160998 C 0.7043045371762905 -2.3586929569389334 0.7398151137745997 -2.3645037785641114 0.7708061624422146 -2.3709602470365314 C 0.7514367570249553 -2.3167259118682044 0.7320673516076958 -2.256357931651079 0.712697946190436 -2.1898563063851544 C 0.6933285407731767 -2.12335468111923 0.6733134885086755 -2.0533019981934744 0.6526527893969319 -1.9796982576078883 C 0.6319920902851882 -1.9060945170223018 0.6122998614443077 -1.8318451295894738 0.5935761028742902 -1.7569500953094033 C 0.5748523443042727 -1.6820550610293332 0.5564514091578762 -1.6097426141382307 0.5383732974351004 -1.5400127546360964 C 0.4970518992116134 -1.3747271617421482 0.45702179468261017 -1.204922040917506 0.41828298384809115 -1.03059739216217 L -0.01946557858197484 -0.956993651576584 L 0.06575980525396719 -1.7046527006828025 L 0.042516518753255794 -1.7046527006828025 L -0.14924059487761387 -1.0015432840362808 L -0.5521242275566125 -0.9298764839924205" fill="#ffffff" transform="matrix(1,0,0,1,0,0)" fill-rule="nonzero"></path></g></g><defs><clipPath id="SvgjsClipPath1002"><path d=" M -1.4410837630441107 -3.0696675260882214 h 2.8821675260882214 v 2.8821675260882214 h -2.8821675260882214 Z"></path></clipPath><clipPath id="SvgjsClipPath10009706019c-058b-4f8c-b2e8-01923e66a185"><path d=" M -1.4410837630441107 -3.0581388559838687 L 1.441083763044111 -3.0581388559838687 L 1.441083763044111 -0.1990286701043531 L -1.4410837630441107 -0.1990286701043531 Z"></path></clipPath></defs></svg>